<?xml version="1.0" encoding="UTF-8" standalone="no"?>
<!-- Created with Inkscape (http://www.inkscape.org/) -->

<svg
   xmlns:dc="http://purl.org/dc/elements/1.1/"
   xmlns:cc="http://creativecommons.org/ns#"
   xmlns:rdf="http://www.w3.org/1999/02/22-rdf-syntax-ns#"
   xmlns:svg="http://www.w3.org/2000/svg"
   xmlns="http://www.w3.org/2000/svg"
   xmlns:sodipodi="http://sodipodi.sourceforge.net/DTD/sodipodi-0.dtd"
   xmlns:inkscape="http://www.inkscape.org/namespaces/inkscape"
   width="906.20361"
   height="188.76266"
   id="svg2"
   version="1.1"
   inkscape:version="0.91 r13725"
   sodipodi:docname="coder dojo.svg"
   inkscape:export-filename="/Users/timinman/Desktop/coder dojo/coder dojo.png"
   inkscape:export-xdpi="44.32"
   inkscape:export-ydpi="44.32">
  <defs
     id="defs4" />
  <sodipodi:namedview
     id="base"
     pagecolor="#ffffff"
     bordercolor="#666666"
     borderopacity="1.0"
     inkscape:pageopacity="0.0"
     inkscape:pageshadow="2"
     inkscape:zoom="1.0040913"
     inkscape:cx="508.13089"
     inkscape:cy="76.288765"
     inkscape:document-units="px"
     inkscape:current-layer="layer1"
     showgrid="false"
     showguides="true"
     inkscape:guide-bbox="true"
     inkscape:window-width="1440"
     inkscape:window-height="773"
     inkscape:window-x="211"
     inkscape:window-y="98"
     inkscape:window-maximized="0"
     fit-margin-top="0"
     fit-margin-left="0"
     fit-margin-right="0"
     fit-margin-bottom="0">
    <sodipodi:guide
       orientation="0,1"
       position="1016.3676,-179.30024"
       id="guide3178" />
    <sodipodi:guide
       orientation="0,1"
       position="101.76396,417.29107"
       id="guide3180" />
    <sodipodi:guide
       orientation="1,0"
       position="-127.20498,181.96188"
       id="guide3182" />
    <sodipodi:guide
       orientation="0,1"
       position="218.79253,335.87989"
       id="guide3954" />
    <sodipodi:guide
       orientation="0,1"
       position="222.60868,141.25629"
       id="guide3956" />
    <sodipodi:guide
       orientation="1,0"
       position="-2.953125e-06,98.642621"
       id="guide3960" />
    <sodipodi:guide
       orientation="0,1"
       position="1011.8962,289.18376"
       id="guide3962" />
    <sodipodi:guide
       orientation="0,1"
       position="174.05332,154.44242"
       id="guide3964" />
    <sodipodi:guide
       orientation="1,0"
       position="153.81514,104.52156"
       id="guide3966" />
    <sodipodi:guide
       orientation="0,1"
       position="136.72511,109.46867"
       id="guide3968" />
    <sodipodi:guide
       orientation="0,1"
       position="93.100588,96.426291"
       id="guide3978" />
    <sodipodi:guide
       orientation="0,1"
       position="285.58822,27.616449"
       id="guide4005" />
    <sodipodi:guide
       orientation="1,0"
       position="18.048387,141.25629"
       id="guide3017" />
    <sodipodi:guide
       orientation="1,0"
       position="18.048387,186.82352"
       id="guide3019" />
  </sodipodi:namedview>
  <metadata
     id="metadata7">
    <rdf:RDF>
      <cc:Work
         rdf:about="">
        <dc:format>image/svg+xml</dc:format>
        <dc:type
           rdf:resource="http://purl.org/dc/dcmitype/StillImage" />
        <dc:title></dc:title>
      </cc:Work>
    </rdf:RDF>
  </metadata>
  <g
     inkscape:label="Layer 1"
     inkscape:groupmode="layer"
     id="layer1"
     transform="translate(-348.54163,-705.92413)">
    <g
       transform="matrix(1.758353,0,0,1.758353,167.87557,-228.14273)"
       style="font-style:normal;font-variant:normal;font-weight:normal;font-stretch:normal;font-size:64px;line-height:125%;font-family:Sans;-inkscape-font-specification:Helvetica;letter-spacing:0px;word-spacing:0px;fill:#313131;fill-opacity:1;stroke:none"
       id="flowRoot2985">
      <path
         d="m 205.84101,531.6985 15.30376,0 0,3.03222 -11.70078,0 0,7.84808 10.55924,0 0,3.03222 -10.55924,0 0,12.71746 -3.60298,0 0,-26.62998 z"
         style="font-style:normal;font-variant:normal;font-weight:normal;font-stretch:normal;font-size:36.52925873px;font-family:Montserrat;-inkscape-font-specification:Montserrat;letter-spacing:4.32222652px;fill:#000000;fill-opacity:1"
         id="path4179"
         inkscape:connector-curvature="0" />
      <path
         d="m 243.7673,545.84289 q 1.15937,0.3924 2.2474,1.67664 1.10587,1.28423 2.21174,3.53163 l 3.65649,7.27732 -3.87053,0 -3.40679,-6.8314 q -1.3199,-2.67549 -2.56846,-3.54948 -1.23072,-0.87399 -3.37111,-0.87399 l -3.92404,0 0,11.25487 -3.60298,0 0,-26.62998 8.13347,0 q 4.56615,0 6.81356,1.90852 2.2474,1.90851 2.2474,5.7612 0,2.51496 -1.17721,4.17376 -1.15937,1.65879 -3.38894,2.30091 z m -9.0253,-11.18352 0,9.45337 4.53049,0 q 2.60413,0 3.92404,-1.19504 1.33774,-1.21289 1.33774,-3.54948 0,-2.33659 -1.33774,-3.5138 -1.31991,-1.19505 -3.92404,-1.19505 l -4.53049,0 z"
         style="font-style:normal;font-variant:normal;font-weight:normal;font-stretch:normal;font-size:36.52925873px;font-family:Montserrat;-inkscape-font-specification:Montserrat;letter-spacing:4.32222652px;fill:#000000;fill-opacity:1"
         id="path4181"
         inkscape:connector-curvature="0" />
      <path
         d="m 260.8605,531.6985 16.8377,0 0,3.03222 -13.23472,0 0,7.88375 12.68179,0 0,3.03222 -12.68179,0 0,9.64957 13.55578,0 0,3.03222 -17.15876,0 0,-26.62998 z"
         style="font-style:normal;font-variant:normal;font-weight:normal;font-stretch:normal;font-size:36.52925873px;font-family:Montserrat;-inkscape-font-specification:Montserrat;letter-spacing:4.32222652px;fill:#000000;fill-opacity:1"
         id="path4183"
         inkscape:connector-curvature="0" />
      <path
         d="m 288.22755,531.6985 5.3688,0 6.79573,18.12194 6.8314,-18.12194 5.3688,0 0,26.62998 -3.5138,0 0,-23.38372 -6.86707,18.26463 -3.62082,0 -6.86708,-18.26463 0,23.38372 -3.49596,0 0,-26.62998 z"
         style="font-style:normal;font-variant:normal;font-weight:normal;font-stretch:normal;font-size:36.52925873px;font-family:Montserrat;-inkscape-font-specification:Montserrat;letter-spacing:4.32222652px;fill:#000000;fill-opacity:1"
         id="path4185"
         inkscape:connector-curvature="0" />
      <path
         d="m 334.8224,534.14211 q -3.92404,0 -6.24279,2.9252 -2.30091,2.92519 -2.30091,7.97294 0,5.0299 2.30091,7.9551 2.31875,2.92519 6.24279,2.92519 3.92405,0 6.20712,-2.92519 2.30092,-2.9252 2.30092,-7.9551 0,-5.04775 -2.30092,-7.97294 -2.28307,-2.9252 -6.20712,-2.9252 z m 0,-2.92519 q 5.60068,0 8.95395,3.76351 3.35328,3.74568 3.35328,10.05982 0,6.2963 -3.35328,10.05981 -3.35327,3.74568 -8.95395,3.74568 -5.61851,0 -8.98962,-3.74568 -3.35327,-3.74568 -3.35327,-10.05981 0,-6.31414 3.35327,-10.05982 3.37111,-3.76351 8.98962,-3.76351 z"
         style="font-style:normal;font-variant:normal;font-weight:normal;font-stretch:normal;font-size:36.52925873px;font-family:Montserrat;-inkscape-font-specification:Montserrat;letter-spacing:4.32222652px;fill:#000000;fill-opacity:1"
         id="path4187"
         inkscape:connector-curvature="0" />
      <path
         d="m 357.0882,531.6985 4.85154,0 11.8078,22.27786 0,-22.27786 3.49596,0 0,26.62998 -4.85154,0 -11.8078,-22.27786 0,22.27786 -3.49596,0 0,-26.62998 z"
         style="font-style:normal;font-variant:normal;font-weight:normal;font-stretch:normal;font-size:36.52925873px;font-family:Montserrat;-inkscape-font-specification:Montserrat;letter-spacing:4.32222652px;fill:#000000;fill-opacity:1"
         id="path4189"
         inkscape:connector-curvature="0" />
      <path
         d="m 385.04386,531.6985 22.52756,0 0,3.03222 -9.45337,0 0,23.59776 -3.62082,0 0,-23.59776 -9.45337,0 0,-3.03222 z"
         style="font-style:normal;font-variant:normal;font-weight:normal;font-stretch:normal;font-size:36.52925873px;font-family:Montserrat;-inkscape-font-specification:Montserrat;letter-spacing:4.32222652px;fill:#000000;fill-opacity:1"
         id="path4191"
         inkscape:connector-curvature="0" />
    </g>
    <g
       transform="matrix(1.9601858,0,0,1.9601858,128.66824,-280.48854)"
       style="font-style:normal;font-variant:normal;font-weight:normal;font-stretch:normal;font-size:64px;line-height:125%;font-family:Sans;-inkscape-font-specification:Helvetica;letter-spacing:0px;word-spacing:0px;fill:#000000;fill-opacity:1;stroke:none"
       id="flowRoot3162">
      <path
         d="m 245.13086,583.14742 q -3.3125,1.71875 -6.90625,2.59375 -3.59375,0.875 -7.5,0.875 -11.65625,0 -18.46875,-6.5 -6.8125,-6.53125 -6.8125,-17.6875 0,-11.1875 6.8125,-17.6875 6.8125,-6.53125 18.46875,-6.53125 3.90625,0 7.5,0.875 3.59375,0.875 6.90625,2.59375 l 0,9.65625 q -3.34375,-2.28125 -6.59375,-3.34375 -3.25,-1.0625 -6.84375,-1.0625 -6.4375,0 -10.125,4.125 -3.6875,4.125 -3.6875,11.375 0,7.21875 3.6875,11.34375 3.6875,4.125 10.125,4.125 3.59375,0 6.84375,-1.0625 3.25,-1.0625 6.59375,-3.34375 l 0,9.65625 z"
         style="font-style:normal;font-variant:normal;font-weight:bold;font-stretch:normal;font-family:Montserrat;-inkscape-font-specification:'Montserrat Bold';fill:#000000;fill-opacity:1"
         id="path4160"
         inkscape:connector-curvature="0" />
      <path
         d="m 271.16211,557.86617 q -3.71875,0 -5.6875,2.6875 -1.9375,2.65625 -1.9375,7.6875 0,5.03125 1.9375,7.71875 1.96875,2.65625 5.6875,2.65625 3.65625,0 5.59375,-2.65625 1.9375,-2.6875 1.9375,-7.71875 0,-5.03125 -1.9375,-7.6875 -1.9375,-2.6875 -5.59375,-2.6875 z m 0,-8 q 9.03125,0 14.09375,4.875 5.09375,4.875 5.09375,13.5 0,8.625 -5.09375,13.5 -5.0625,4.875 -14.09375,4.875 -9.0625,0 -14.1875,-4.875 -5.09375,-4.875 -5.09375,-13.5 0,-8.625 5.09375,-13.5 5.125,-4.875 14.1875,-4.875 z"
         style="font-style:normal;font-variant:normal;font-weight:bold;font-stretch:normal;font-family:Montserrat;-inkscape-font-specification:'Montserrat Bold';fill:#000000;fill-opacity:1"
         id="path4162"
         inkscape:connector-curvature="0" />
      <path
         d="m 322.31836,555.83492 0,-18.75 11.25,0 0,48.625 -11.25,0 0,-5.0625 q -2.3125,3.09375 -5.09375,4.53125 -2.78125,1.4375 -6.4375,1.4375 -6.46875,0 -10.625,-5.125 -4.15625,-5.15625 -4.15625,-13.25 0,-8.09375 4.15625,-13.21875 4.15625,-5.15625 10.625,-5.15625 3.625,0 6.40625,1.46875 2.8125,1.4375 5.125,4.5 z m -7.375,22.65625 q 3.59375,0 5.46875,-2.625 1.90625,-2.625 1.90625,-7.625 0,-5 -1.90625,-7.625 -1.875,-2.625 -5.46875,-2.625 -3.5625,0 -5.46875,2.625 -1.875,2.625 -1.875,7.625 0,5 1.875,7.625 1.90625,2.625 5.46875,2.625 z"
         style="font-style:normal;font-variant:normal;font-weight:bold;font-stretch:normal;font-family:Montserrat;-inkscape-font-specification:'Montserrat Bold';fill:#000000;fill-opacity:1"
         id="path4164"
         inkscape:connector-curvature="0" />
      <path
         d="m 379.31836,568.11617 0,3.1875 -26.15625,0 q 0.40625,3.9375 2.84375,5.90625 2.4375,1.96875 6.8125,1.96875 3.53125,0 7.21875,-1.03125 3.71875,-1.0625 7.625,-3.1875 l 0,8.625 q -3.96875,1.5 -7.9375,2.25 -3.96875,0.78125 -7.9375,0.78125 -9.5,0 -14.78125,-4.8125 -5.25,-4.84375 -5.25,-13.5625 0,-8.5625 5.15625,-13.46875 5.1875,-4.90625 14.25,-4.90625 8.25,0 13.1875,4.96875 4.96875,4.96875 4.96875,13.28125 z m -11.5,-3.71875 q 0,-3.1875 -1.875,-5.125 -1.84375,-1.96875 -4.84375,-1.96875 -3.25,0 -5.28125,1.84375 -2.03125,1.8125 -2.53125,5.25 l 14.53125,0 z"
         style="font-style:normal;font-variant:normal;font-weight:bold;font-stretch:normal;font-family:Montserrat;-inkscape-font-specification:'Montserrat Bold';fill:#000000;fill-opacity:1"
         id="path4166"
         inkscape:connector-curvature="0" />
      <path
         d="m 413.88086,560.24117 q -1.46875,-0.6875 -2.9375,-1 -1.4375,-0.34375 -2.90625,-0.34375 -4.3125,0 -6.65625,2.78125 -2.3125,2.75 -2.3125,7.90625 l 0,16.125 -11.1875,0 0,-35 11.1875,0 0,5.75 q 2.15625,-3.4375 4.9375,-5 2.8125,-1.59375 6.71875,-1.59375 0.5625,0 1.21875,0.0625 0.65625,0.0312 1.90625,0.1875 l 0.0312,10.125 z"
         style="font-style:normal;font-variant:normal;font-weight:bold;font-stretch:normal;font-family:Montserrat;-inkscape-font-specification:'Montserrat Bold';fill:#000000;fill-opacity:1"
         id="path4168"
         inkscape:connector-curvature="0" />
      <path
         d="m 432.03711,548.14742 0,28.46875 4.3125,0 q 7.375,0 11.25,-3.65625 3.90625,-3.65625 3.90625,-10.625 0,-6.9375 -3.875,-10.5625 -3.875,-3.625 -11.28125,-3.625 l -4.3125,0 z m -12.03125,-9.09375 12.6875,0 q 10.625,0 15.8125,1.53125 5.21875,1.5 8.9375,5.125 3.28125,3.15625 4.875,7.28125 1.59375,4.125 1.59375,9.34375 0,5.28125 -1.59375,9.4375 -1.59375,4.125 -4.875,7.28125 -3.75,3.625 -9,5.15625 -5.25,1.5 -15.75,1.5 l -12.6875,0 0,-46.65625 z"
         style="font-style:normal;font-variant:normal;font-weight:bold;font-stretch:normal;font-family:Montserrat;-inkscape-font-specification:'Montserrat Bold';fill:#000000;fill-opacity:1"
         id="path4170"
         inkscape:connector-curvature="0" />
      <path
         d="m 489.28711,557.86617 q -3.71875,0 -5.6875,2.6875 -1.9375,2.65625 -1.9375,7.6875 0,5.03125 1.9375,7.71875 1.96875,2.65625 5.6875,2.65625 3.65625,0 5.59375,-2.65625 1.9375,-2.6875 1.9375,-7.71875 0,-5.03125 -1.9375,-7.6875 -1.9375,-2.6875 -5.59375,-2.6875 z m 0,-8 q 9.03125,0 14.09375,4.875 5.09375,4.875 5.09375,13.5 0,8.625 -5.09375,13.5 -5.0625,4.875 -14.09375,4.875 -9.0625,0 -14.1875,-4.875 -5.09375,-4.875 -5.09375,-13.5 0,-8.625 5.09375,-13.5 5.125,-4.875 14.1875,-4.875 z"
         style="font-style:normal;font-variant:normal;font-weight:bold;font-stretch:normal;font-family:Montserrat;-inkscape-font-specification:'Montserrat Bold';fill:#000000;fill-opacity:1"
         id="path4172"
         inkscape:connector-curvature="0" />
      <path
         d="m 516.63086,550.70992 11.1875,0 0,34.375 q 0,7.03125 -3.375,10.71875 -3.375,3.71875 -9.78125,3.71875 l -5.53125,0 0,-7.34375 1.9375,0 q 3.1875,0 4.375,-1.4375 1.1875,-1.4375 1.1875,-5.65625 l 0,-34.375 z m 0,-13.625 11.1875,0 0,9.125 -11.1875,0 0,-9.125 z"
         style="font-style:normal;font-variant:normal;font-weight:bold;font-stretch:normal;font-family:Montserrat;-inkscape-font-specification:'Montserrat Bold';fill:#000000;fill-opacity:1"
         id="path4174"
         inkscape:connector-curvature="0" />
      <path
         d="m 555.28711,557.86617 q -3.71875,0 -5.6875,2.6875 -1.9375,2.65625 -1.9375,7.6875 0,5.03125 1.9375,7.71875 1.96875,2.65625 5.6875,2.65625 3.65625,0 5.59375,-2.65625 1.9375,-2.6875 1.9375,-7.71875 0,-5.03125 -1.9375,-7.6875 -1.9375,-2.6875 -5.59375,-2.6875 z m 0,-8 q 9.03125,0 14.09375,4.875 5.09375,4.875 5.09375,13.5 0,8.625 -5.09375,13.5 -5.0625,4.875 -14.09375,4.875 -9.0625,0 -14.1875,-4.875 -5.09375,-4.875 -5.09375,-13.5 0,-8.625 5.09375,-13.5 5.125,-4.875 14.1875,-4.875 z"
         style="font-style:normal;font-variant:normal;font-weight:bold;font-stretch:normal;font-family:Montserrat;-inkscape-font-specification:'Montserrat Bold';fill:#000000;fill-opacity:1"
         id="path4176"
         inkscape:connector-curvature="0" />
    </g>
    <rect
       style="fill:#ed462f;fill-opacity:1;fill-rule:nonzero;stroke:none"
       id="rect3970"
       width="153.81514"
       height="32.3811"
       x="348.54163"
       y="707.86328"
       inkscape:export-filename="/Users/timinman/Desktop/codof5.png"
       inkscape:export-xdpi="22.969999"
       inkscape:export-ydpi="22.969999"
       rx="0"
       ry="0" />
    <rect
       y="753.43048"
       x="348.54163"
       height="32.3811"
       width="153.81514"
       id="rect3972"
       style="fill:#ed462f;fill-opacity:1;fill-rule:nonzero;stroke:none"
       inkscape:export-filename="/Users/timinman/Desktop/codof5.png"
       inkscape:export-xdpi="22.969999"
       inkscape:export-ydpi="22.969999"
       rx="0"
       ry="0" />
    <rect
       style="fill:#2c9cfb;fill-opacity:1;fill-rule:nonzero;stroke:none"
       id="rect3974"
       width="68.589897"
       height="32.3811"
       x="798.23999"
       y="-380.92273"
       transform="matrix(0,1,-1,0,0,0)"
       inkscape:export-filename="/Users/timinman/Desktop/codof5.png"
       inkscape:export-xdpi="22.969999"
       inkscape:export-ydpi="22.969999"
       rx="0"
       ry="0" />
    <rect
       transform="matrix(0,1,-1,0,0,0)"
       y="-502.35678"
       x="798.23999"
       height="32.3811"
       width="68.589897"
       id="rect3976"
       style="fill:#2c9cfb;fill-opacity:1;fill-rule:nonzero;stroke:none"
       inkscape:export-filename="/Users/timinman/Desktop/codof5.png"
       inkscape:export-xdpi="22.969999"
       inkscape:export-ydpi="22.969999"
       rx="0"
       ry="0" />
  </g>
</svg>
